<?xml version="1.0" encoding="utf-8"?>
<!-- Generator: Adobe Illustrator 20.0.0, SVG Export Plug-In . SVG Version: 6.00 Build 0)  -->
<svg version="1.1" id="Layer_1" xmlns="http://www.w3.org/2000/svg" xmlns:xlink="http://www.w3.org/1999/xlink" x="0px" y="0px"
	 viewBox="0 0 300 150" style="enable-background:new 0 0 300 150;" xml:space="preserve">
<style type="text/css">
	.st0{fill-rule:evenodd;clip-rule:evenodd;}
	.st1{fill-rule:evenodd;clip-rule:evenodd;fill:#3D83A5;}
</style>
<g>
	<path class="st0" d="M70.7,51.7c-0.2,0-0.4-0.2-0.4-0.4l0-3.7h-0.6l-1.6,2.7v2.2l1.5,2.5v17.5c0,1.2,1.2,1.8,2.4,1.8
		c1.2,0,2.4-0.6,2.4-1.8V55l1.5-2.5v-2.2l-1.6-2.7h-0.6v3.7c0,0.2-0.2,0.4-0.4,0.4H70.7L70.7,51.7z M72.1,71.5
		c0.3,0,0.6,0.3,0.6,0.6s-0.3,0.6-0.6,0.6c-0.3,0-0.6-0.3-0.6-0.6S71.8,71.5,72.1,71.5z"/>
	<path class="st0" d="M38.9,34.3c0.3,1.6,0.8,3.2,1.3,4.1c1,1.7,3.2,3.3,5.6,3.9c1.1,0.2,1.4,0.2,2.6,0c2.3-0.6,4.3-2.2,5.1-3.9
		c0.6-1.2,0.9-3.6,0.9-5.8C49.3,33.1,44.1,33.7,38.9,34.3L38.9,34.3z M29,81.7v-2c0-0.6,0.5-1.1,1.1-1.1h0.8
		c-0.2-4.6-0.5-9.2-0.7-13.8c-0.1-1,0-1.5,0.1-2.4c0.6-5.5,0.6-11.5,4-15.6c0.8-1,1.8-1.8,2.9-2.4c0.8,0,1.9,0.2,3,1.1
		c2.3,1.8,5.5,5.1,6.1,10.8h-2.9l-4.7,7.7l0.5-6.8L38.6,57l-1.4,9.2c-0.1,4.1-0.2,8.2-0.2,12.3h1c0.5,0,0.7,0.5,0.7,0.9v2.3h2.8v2.9
		H23.9v-2.1c0-0.5,0.4-0.9,0.9-0.9H29L29,81.7z M31,79.8h-0.4c-0.2,0-0.3,0.1-0.3,0.3v1.6h1c-0.1-0.3-0.2-0.6-0.2-0.9L31,79.8
		L31,79.8z M56.9,59.8h-2.4v2h2.4V59.8L56.9,59.8z M42.9,84.7h6v-2.9h-6V84.7L42.9,84.7z M49.1,59.8h-2.4v2h2.4V59.8L49.1,59.8z
		 M24.4,86.1V93c5.7,0,11.4,0,17.1,0v-6.9h-7.4v2.3h-2.6v-2.3H24.4L24.4,86.1z M36.1,94.5l-0.1,18c0,1.3,0.3,2.2,0.8,2.2h8.9
		c0.6,0,0.6-2.5-0.3-2.9l-0.4-0.2l1.4-17.1H36.1L36.1,94.5z M48.9,93v-6.9h-6V93C44.9,93,46.9,93,48.9,93L48.9,93z M46.6,94.5
		l0.3,18c0,1.3,0.4,2.2,0.9,2.2c3.9,0,7.8,0,11.7,0c0.8,0,0.8-2.5-0.5-2.9l-3.1-0.9l0.6-15.7c0.5-12.6,1.5-21.7,1.6-35l0.8,7
		l13.6-0.8c4.2,0.1,4.6-7.8,1.3-7.5l-11.9,0.1c-1.6-3-3.3-6.5-5.3-9.5c0.8,2.3,1.3,5.2,1,8.6c-4.4,0-8.8,0-13.2,0l-5.8,8.9
		l-0.2,10.7c1.3,0,1.6,0.7,1.6,1.9v0.8h10.3c0,4.7,0,9.5,0,14.2H46.6L46.6,94.5z M51.9,45.6c-2.1,2.6-6.4-0.6-9.5-1.7
		c2.8,2.2,6.1,6.1,6.7,12.4h5.9C55.1,51.2,53.2,47.5,51.9,45.6L51.9,45.6z M56.9,31.3c-6.4,0.7-12.7,1.4-19.1,2.1
		c-0.2,0-0.4-0.1-0.4-0.4l-0.2-1.9c0-0.2,0.1-0.4,0.3-0.4c0.1,0,0.2-0.1,0.2-0.2c-1.1-10.5,15-13.3,17.5-2c0.1,0.2,0.3,0.5,0.5,0.5
		l1,0.2c0.3,0.1,0.6,0.2,0.6,0.5l0.1,0.9C57.5,31.2,57.2,31.2,56.9,31.3L56.9,31.3z M45,23.3c-3.3,0-6.1,2.6-6.4,5.8l0.4,0
		c0.7-2.5,3-4.3,5.7-4.3c2.7,0,4.9,1.8,5.7,4.2l1-0.1C50.9,25.8,48.2,23.3,45,23.3z"/>
</g>
<g>
	<path class="st0" d="M182.8,69.9h24V47.4h-24V69.9L182.8,69.9z M235.7,69.9h20V46.6h-20V69.9L235.7,69.9z M238.7,57.6v-8.2h14v8.2
		H238.7L238.7,57.6z M238.7,59h3.8v1.5h-3.8V59L238.7,59z M243.8,59h3.8v1.5h-3.8V59L243.8,59z M248.9,59h3.8v1.5h-3.8V59L248.9,59z
		 M238.7,61.8h3.8v1.5h-3.8V61.8L238.7,61.8z M243.8,61.8h3.8v1.5h-3.8V61.8L243.8,61.8z M248.9,61.8h3.8v1.5h-3.8V61.8L248.9,61.8z
		 M238.7,64.6h3.8v1.5h-3.8V64.6L238.7,64.6z M243.8,64.6h3.8v1.5h-3.8V64.6L243.8,64.6z M248.9,64.6h3.8v1.5h-3.8V64.6L248.9,64.6z
		 M230.3,65.9h4.4v-8.5h-4.4V59H229V61h-0.6v1.4h0.6v1.9h1.3V65.9L230.3,65.9z M182.8,97.1V71.3h26.8v-2h3v-2.6h2.1v-3.6h-1v-2.2h1
		v-1.4v-0.6h9.6v0.6v1.4h1v2.2h-1v3.6h2.1v2.6h4.8v2h24.6v25.8h-16.9v-5.7h-39.2v5.7H182.8L182.8,97.1z M187,74.8v1.8h63.5v-1.8H187
		L187,74.8z M202.8,56.4h1.6v4.5h-1.6V56.4L202.8,56.4z M187,79.9v1.2h63.5v-1.2H187L187,79.9z M219.4,66.3c-2,0-3.7,1.7-3.7,3.7
		c0,2,1.7,3.7,3.7,3.7c2,0,3.7-1.7,3.7-3.7C223.1,68,221.4,66.3,219.4,66.3L219.4,66.3z M219.8,71.1v1.7c1.3-0.2,2.3-1.4,2.3-2.8
		c0-0.3-0.1-0.7-0.2-1l-1.5,0.9c0,0,0,0.1,0,0.1C220.5,70.5,220.2,70.9,219.8,71.1L219.8,71.1z M218.9,72.8v-1.7
		c-0.4-0.2-0.7-0.6-0.7-1.1c0,0,0-0.1,0-0.1l-1.5-0.9c-0.1,0.3-0.2,0.6-0.2,1C216.6,71.4,217.6,72.6,218.9,72.8L218.9,72.8z
		 M220.1,69.1l1.5-0.8c-0.5-0.6-1.3-1-2.2-1s-1.6,0.4-2.2,1l1.5,0.8C219.1,68.8,219.7,68.8,220.1,69.1z"/>
	<path class="st0" d="M260.6,41.6c-0.1,2.1,1.1,4.2,3.1,5.2c2.7,1.3,6,0.1,7.3-2.6c0.5-1,0.6-2.2,0.5-3.2
		C267.8,41.2,264.2,41.4,260.6,41.6L260.6,41.6z M249.5,51.5l5.7,3.3c0.3,0.1,0.6,0.1,0.9-0.1l5.7-4.5c1.9-1.3,7.5-3.7,12-0.5
		c2.3,1.6,6.7,6.9,8.1,8c0.5,0.5,0.8,1,0.9,1.7l0.3,10c0.1,2.1-3.9,2.8-4.2,0.6l-0.5-9l-4.4-4c0.5,2.7,1.1,5.3,1.7,8
		c0.5,2.4,0.7,5.1,0.4,7.1l-1.2,8.6c-0.1,0.5-0.1,0.9-0.1,1.4l0.5,11.2c0,0.7,0.1,1.4,0.1,2.1c0,0.6,0,1.2-0.5,1.2h-6
		c-0.5,0-0.8-1.9,0-2.2l0.9-0.3l-0.8-11.2c-0.1-0.8-0.1-1.7,0-2.7l0.9-6.8c0.1-0.3-0.7-0.5-1.1,0l-3.6,7.1c-0.3,0.5-0.4,1.1-0.3,1.7
		l0.5,11c0,0.7,0.1,1.5,0.1,2.2c0,0.5-0.1,1-0.6,1.1h-6.8c-0.5,0-0.9-1.9,0-2.2l1.7-0.6l-1.3-12.5c-0.1-1.2,0-2.3,0.4-3.4l5-11.1
		c0.2-0.7,0.3-1.3,0.2-1.9l-1.4-7.5l-4.7,2.6c-0.9,0.6-2.1,0.8-3.6,0.1l-5.4-3.2c-1.3-0.8-2.9-1.5-2.9-3.3c0-0.2,0.4-1.5,0.7-2.3
		C247,50.3,248.6,50.9,249.5,51.5L249.5,51.5z M258.6,40.9c-0.2,0-0.4,0-0.5-0.3l0-0.7c0-0.2,0.2-0.4,0.4-0.4l0.7-0.3
		c0.2-0.1,0.3-0.3,0.3-0.5c0.9-7.2,11.3-7.2,12.7-0.7c0,0.1,0.1,0.1,0.2,0.1c0.1,0,0.2,0.1,0.3,0.3l0.1,1.3c0,0.2-0.1,0.3-0.3,0.3
		C267.9,40.4,263.2,40.7,258.6,40.9z"/>
	<rect x="177" y="96.7" class="st0" width="104.7" height="6"/>
</g>
<polygon class="st1" points="153.5,60.9 146,56.4 146,62 98,62 98,69 146,69 146,74.2 153.5,69.8 161.2,65.3 "/>
<g>
	<path d="M25.4,133.8C25.4,133.9,25.4,133.9,25.4,133.8c0,0.1-0.1,0.1-0.1,0.2s-0.1,0-0.2,0s-0.2,0-0.3,0c-0.1,0-0.2,0-0.3,0
		s-0.1,0-0.2,0s-0.1,0-0.1-0.1c0,0,0-0.1,0-0.1v-3.7c0-0.3,0-0.5-0.1-0.7s-0.1-0.4-0.2-0.6s-0.2-0.3-0.4-0.4s-0.3-0.1-0.5-0.1
		c-0.3,0-0.5,0.1-0.8,0.3s-0.6,0.5-0.9,0.9v4.3c0,0,0,0.1,0,0.1c0,0,0,0-0.1,0.1s-0.1,0-0.2,0s-0.2,0-0.3,0c-0.1,0-0.2,0-0.3,0
		s-0.1,0-0.2,0s-0.1,0-0.1-0.1c0,0,0-0.1,0-0.1v-3.7c0-0.3,0-0.5-0.1-0.7s-0.1-0.4-0.2-0.6s-0.2-0.3-0.4-0.4s-0.3-0.1-0.5-0.1
		c-0.3,0-0.5,0.1-0.8,0.3s-0.6,0.5-0.9,0.9v4.3c0,0,0,0.1,0,0.1c0,0,0,0-0.1,0.1s-0.1,0-0.2,0s-0.2,0-0.3,0c-0.1,0-0.2,0-0.3,0
		s-0.1,0-0.2,0s-0.1,0-0.1-0.1c0,0,0-0.1,0-0.1v-6.2c0,0,0-0.1,0-0.1c0,0,0,0,0.1-0.1c0,0,0.1,0,0.2,0c0.1,0,0.1,0,0.3,0
		c0.1,0,0.2,0,0.2,0c0.1,0,0.1,0,0.2,0c0,0,0.1,0,0.1,0.1c0,0,0,0.1,0,0.1v0.8c0.3-0.4,0.7-0.7,1-0.9c0.3-0.2,0.7-0.3,1-0.3
		c0.3,0,0.5,0,0.7,0.1s0.4,0.1,0.5,0.2c0.2,0.1,0.3,0.2,0.4,0.4c0.1,0.1,0.2,0.3,0.3,0.5c0.2-0.2,0.4-0.4,0.6-0.6s0.4-0.3,0.5-0.4
		s0.3-0.2,0.5-0.2c0.2,0,0.3-0.1,0.5-0.1c0.4,0,0.7,0.1,1,0.2c0.3,0.1,0.5,0.3,0.7,0.6s0.3,0.5,0.4,0.8c0.1,0.3,0.1,0.6,0.1,1V133.8
		z"/>
	<path d="M32.1,133.8c0,0.1,0,0.1-0.1,0.1s-0.1,0-0.2,0.1s-0.2,0-0.3,0c-0.1,0-0.2,0-0.3,0s-0.1,0-0.2-0.1s0-0.1,0-0.1v-0.6
		c-0.3,0.3-0.6,0.5-0.9,0.7s-0.7,0.2-1,0.2c-0.3,0-0.6,0-0.9-0.1c-0.3-0.1-0.5-0.2-0.7-0.4s-0.3-0.4-0.4-0.6s-0.2-0.5-0.2-0.8
		c0-0.3,0.1-0.6,0.2-0.9s0.3-0.5,0.6-0.6s0.6-0.3,1-0.4c0.4-0.1,0.8-0.1,1.3-0.1H31v-0.5c0-0.2,0-0.4-0.1-0.6s-0.1-0.3-0.2-0.5
		c-0.1-0.1-0.3-0.2-0.4-0.3c-0.2-0.1-0.4-0.1-0.7-0.1c-0.3,0-0.5,0-0.7,0.1c-0.2,0.1-0.4,0.1-0.6,0.2c-0.2,0.1-0.3,0.2-0.4,0.2
		c-0.1,0.1-0.2,0.1-0.2,0.1c0,0-0.1,0-0.1,0s-0.1,0-0.1-0.1s0-0.1,0-0.1c0-0.1,0-0.1,0-0.2c0-0.1,0-0.2,0-0.3c0-0.1,0.1-0.1,0.1-0.2
		s0.2-0.1,0.3-0.2c0.2-0.1,0.3-0.2,0.5-0.2c0.2-0.1,0.4-0.1,0.6-0.2c0.2,0,0.5-0.1,0.7-0.1c0.4,0,0.8,0,1.1,0.2s0.6,0.2,0.8,0.4
		c0.2,0.2,0.3,0.4,0.4,0.7s0.1,0.6,0.1,1V133.8z M31,131h-1c-0.3,0-0.6,0-0.8,0.1c-0.2,0.1-0.4,0.1-0.6,0.2
		c-0.2,0.1-0.3,0.2-0.3,0.4c-0.1,0.1-0.1,0.3-0.1,0.5c0,0.3,0.1,0.6,0.3,0.8c0.2,0.2,0.5,0.3,0.9,0.3c0.3,0,0.6-0.1,0.8-0.2
		s0.5-0.4,0.8-0.7V131z"/>
	<path d="M39.5,133.8C39.5,133.9,39.5,133.9,39.5,133.8c0,0.1-0.1,0.1-0.1,0.2s-0.1,0-0.2,0s-0.2,0-0.3,0c-0.1,0-0.2,0-0.3,0
		s-0.1,0-0.2,0s-0.1,0-0.1-0.1c0,0,0-0.1,0-0.1v-3.6c0-0.4,0-0.6-0.1-0.8s-0.1-0.4-0.2-0.6s-0.2-0.3-0.4-0.4s-0.4-0.1-0.6-0.1
		c-0.3,0-0.6,0.1-0.8,0.3s-0.6,0.5-0.9,0.9v4.3c0,0,0,0.1,0,0.1c0,0,0,0-0.1,0.1s-0.1,0-0.2,0s-0.2,0-0.3,0c-0.1,0-0.2,0-0.3,0
		s-0.1,0-0.2,0s-0.1,0-0.1-0.1c0,0,0-0.1,0-0.1v-6.2c0,0,0-0.1,0-0.1c0,0,0,0,0.1-0.1c0,0,0.1,0,0.2,0c0.1,0,0.1,0,0.3,0
		c0.1,0,0.2,0,0.2,0c0.1,0,0.1,0,0.2,0c0,0,0.1,0,0.1,0.1c0,0,0,0.1,0,0.1v0.8c0.3-0.4,0.7-0.7,1-0.9c0.3-0.2,0.7-0.3,1-0.3
		c0.4,0,0.8,0.1,1,0.2c0.3,0.1,0.5,0.3,0.7,0.6s0.3,0.5,0.4,0.8c0.1,0.3,0.1,0.7,0.1,1.1V133.8z"/>
	<path d="M46.8,133.8C46.8,133.9,46.8,133.9,46.8,133.8c0,0.1-0.1,0.1-0.1,0.2s-0.1,0-0.2,0s-0.1,0-0.2,0c-0.1,0-0.2,0-0.3,0
		s-0.1,0-0.2,0s-0.1,0-0.1-0.1c0,0,0-0.1,0-0.1V133c-0.4,0.4-0.7,0.7-1,0.8s-0.7,0.3-1,0.3c-0.4,0-0.8-0.1-1-0.2s-0.5-0.3-0.7-0.6
		c-0.2-0.2-0.3-0.5-0.4-0.8c-0.1-0.3-0.1-0.7-0.1-1.1v-3.7c0,0,0-0.1,0-0.1c0,0,0,0,0.1-0.1c0,0,0.1,0,0.2,0c0.1,0,0.2,0,0.3,0
		s0.2,0,0.3,0c0.1,0,0.1,0,0.2,0c0,0,0.1,0,0.1,0.1c0,0,0,0.1,0,0.1v3.6c0,0.4,0,0.6,0.1,0.9c0.1,0.2,0.1,0.4,0.2,0.6
		c0.1,0.2,0.2,0.3,0.4,0.4c0.2,0.1,0.4,0.1,0.6,0.1c0.3,0,0.6-0.1,0.8-0.3s0.6-0.5,0.9-0.9v-4.3c0,0,0-0.1,0-0.1c0,0,0,0,0.1-0.1
		c0,0,0.1,0,0.2,0c0.1,0,0.2,0,0.3,0c0.1,0,0.2,0,0.3,0c0.1,0,0.1,0,0.2,0c0,0,0.1,0,0.1,0.1c0,0,0,0.1,0,0.1V133.8z"/>
	<path d="M52.2,125.1c0,0.1,0,0.2,0,0.2c0,0.1,0,0.1,0,0.1s0,0.1,0,0.1c0,0,0,0-0.1,0c0,0-0.1,0-0.1,0c0,0-0.1,0-0.2-0.1
		c-0.1,0-0.1,0-0.2-0.1c-0.1,0-0.2,0-0.3,0c-0.2,0-0.3,0-0.4,0.1s-0.2,0.1-0.3,0.3c-0.1,0.1-0.1,0.3-0.2,0.5c0,0.2,0,0.4,0,0.7v0.7
		h1.4c0,0,0.1,0,0.1,0c0,0,0,0,0.1,0.1c0,0,0,0.1,0,0.1s0,0.1,0,0.2c0,0.2,0,0.3-0.1,0.4s-0.1,0.1-0.2,0.1h-1.4v5.4c0,0,0,0.1,0,0.1
		c0,0,0,0-0.1,0.1s-0.1,0-0.2,0s-0.2,0-0.3,0s-0.2,0-0.3,0s-0.1,0-0.2,0s-0.1,0-0.1-0.1c0,0,0-0.1,0-0.1v-5.4h-0.9
		c-0.1,0-0.1,0-0.2-0.1s-0.1-0.2-0.1-0.4c0-0.1,0-0.2,0-0.2s0-0.1,0-0.1c0,0,0-0.1,0.1-0.1c0,0,0.1,0,0.1,0h0.9v-0.6
		c0-0.4,0-0.8,0.1-1.1c0.1-0.3,0.2-0.6,0.4-0.8s0.4-0.3,0.6-0.4c0.2-0.1,0.5-0.1,0.9-0.1c0.2,0,0.3,0,0.5,0c0.2,0,0.3,0.1,0.3,0.1
		c0.1,0,0.1,0.1,0.2,0.1s0.1,0.1,0.1,0.1c0,0,0,0.1,0,0.2C52.2,125,52.2,125.1,52.2,125.1z"/>
	<path d="M57.5,133.8c0,0.1,0,0.1-0.1,0.1s-0.1,0-0.2,0.1s-0.2,0-0.3,0c-0.1,0-0.2,0-0.3,0s-0.1,0-0.2-0.1s0-0.1,0-0.1v-0.6
		c-0.3,0.3-0.6,0.5-0.9,0.7s-0.7,0.2-1,0.2c-0.3,0-0.6,0-0.9-0.1c-0.3-0.1-0.5-0.2-0.7-0.4s-0.3-0.4-0.4-0.6s-0.2-0.5-0.2-0.8
		c0-0.3,0.1-0.6,0.2-0.9s0.3-0.5,0.6-0.6s0.6-0.3,1-0.4c0.4-0.1,0.8-0.1,1.3-0.1h0.8v-0.5c0-0.2,0-0.4-0.1-0.6s-0.1-0.3-0.2-0.5
		c-0.1-0.1-0.3-0.2-0.4-0.3c-0.2-0.1-0.4-0.1-0.7-0.1c-0.3,0-0.5,0-0.7,0.1c-0.2,0.1-0.4,0.1-0.6,0.2c-0.2,0.1-0.3,0.2-0.4,0.2
		c-0.1,0.1-0.2,0.1-0.2,0.1c0,0-0.1,0-0.1,0s-0.1,0-0.1-0.1s0-0.1,0-0.1c0-0.1,0-0.1,0-0.2c0-0.1,0-0.2,0-0.3c0-0.1,0.1-0.1,0.1-0.2
		s0.2-0.1,0.3-0.2c0.2-0.1,0.3-0.2,0.5-0.2c0.2-0.1,0.4-0.1,0.6-0.2c0.2,0,0.5-0.1,0.7-0.1c0.4,0,0.8,0,1.1,0.2s0.6,0.2,0.8,0.4
		c0.2,0.2,0.3,0.4,0.4,0.7s0.1,0.6,0.1,1V133.8z M56.4,131h-1c-0.3,0-0.6,0-0.8,0.1c-0.2,0.1-0.4,0.1-0.6,0.2
		c-0.2,0.1-0.3,0.2-0.3,0.4c-0.1,0.1-0.1,0.3-0.1,0.5c0,0.3,0.1,0.6,0.3,0.8c0.2,0.2,0.5,0.3,0.9,0.3c0.3,0,0.6-0.1,0.8-0.2
		s0.5-0.4,0.8-0.7V131z"/>
	<path d="M62.7,133.4c0,0.1,0,0.2,0,0.3s0,0.1-0.1,0.2s-0.1,0.1-0.2,0.1s-0.2,0.1-0.2,0.1c-0.1,0-0.2,0-0.3,0.1s-0.2,0-0.3,0
		c-0.3,0-0.6,0-0.8-0.1c-0.2-0.1-0.4-0.2-0.6-0.4c-0.1-0.2-0.3-0.4-0.3-0.7c-0.1-0.3-0.1-0.6-0.1-0.9v-3.6h-0.9
		c-0.1,0-0.1,0-0.2-0.1s-0.1-0.2-0.1-0.4c0-0.1,0-0.2,0-0.2s0-0.1,0-0.1c0,0,0-0.1,0.1-0.1c0,0,0.1,0,0.1,0h0.9V126c0,0,0-0.1,0-0.1
		s0-0.1,0.1-0.1c0,0,0.1,0,0.2,0s0.2,0,0.3,0c0.1,0,0.2,0,0.3,0s0.1,0,0.2,0c0,0,0.1,0,0.1,0.1s0,0.1,0,0.1v1.5h1.6c0,0,0.1,0,0.1,0
		c0,0,0.1,0,0.1,0.1c0,0,0,0.1,0,0.1s0,0.1,0,0.2c0,0.2,0,0.3-0.1,0.4s-0.1,0.1-0.2,0.1h-1.6v3.4c0,0.4,0.1,0.7,0.2,1
		c0.1,0.2,0.3,0.3,0.7,0.3c0.1,0,0.2,0,0.3,0c0.1,0,0.2,0,0.2-0.1s0.1,0,0.2-0.1c0,0,0.1,0,0.1,0c0,0,0,0,0.1,0c0,0,0,0,0,0.1
		s0,0.1,0,0.1S62.7,133.3,62.7,133.4z"/>
	<path d="M69.4,133.8C69.4,133.9,69.4,133.9,69.4,133.8c0,0.1-0.1,0.1-0.1,0.2s-0.1,0-0.2,0s-0.1,0-0.2,0c-0.1,0-0.2,0-0.3,0
		s-0.1,0-0.2,0s-0.1,0-0.1-0.1c0,0,0-0.1,0-0.1V133c-0.4,0.4-0.7,0.7-1,0.8s-0.7,0.3-1,0.3c-0.4,0-0.8-0.1-1-0.2s-0.5-0.3-0.7-0.6
		c-0.2-0.2-0.3-0.5-0.4-0.8c-0.1-0.3-0.1-0.7-0.1-1.1v-3.7c0,0,0-0.1,0-0.1c0,0,0,0,0.1-0.1c0,0,0.1,0,0.2,0c0.1,0,0.2,0,0.3,0
		s0.2,0,0.3,0c0.1,0,0.1,0,0.2,0c0,0,0.1,0,0.1,0.1c0,0,0,0.1,0,0.1v3.6c0,0.4,0,0.6,0.1,0.9c0.1,0.2,0.1,0.4,0.2,0.6
		c0.1,0.2,0.2,0.3,0.4,0.4c0.2,0.1,0.4,0.1,0.6,0.1c0.3,0,0.6-0.1,0.8-0.3s0.6-0.5,0.9-0.9v-4.3c0,0,0-0.1,0-0.1c0,0,0,0,0.1-0.1
		c0,0,0.1,0,0.2,0c0.1,0,0.2,0,0.3,0c0.1,0,0.2,0,0.3,0c0.1,0,0.1,0,0.2,0c0,0,0.1,0,0.1,0.1c0,0,0,0.1,0,0.1V133.8z"/>
	<path d="M75.1,128.1c0,0.1,0,0.2,0,0.3s0,0.1,0,0.2c0,0,0,0.1-0.1,0.1c0,0,0,0-0.1,0s-0.1,0-0.1,0c-0.1,0-0.1,0-0.2-0.1
		c-0.1,0-0.1,0-0.2-0.1s-0.2,0-0.3,0c-0.1,0-0.2,0-0.3,0.1s-0.2,0.1-0.3,0.2s-0.2,0.2-0.4,0.4s-0.3,0.4-0.4,0.6v4c0,0,0,0.1,0,0.1
		c0,0,0,0-0.1,0.1s-0.1,0-0.2,0s-0.2,0-0.3,0c-0.1,0-0.2,0-0.3,0s-0.1,0-0.2,0s-0.1,0-0.1-0.1c0,0,0-0.1,0-0.1v-6.2c0,0,0-0.1,0-0.1
		c0,0,0,0,0.1-0.1c0,0,0.1,0,0.2,0c0.1,0,0.1,0,0.3,0c0.1,0,0.2,0,0.2,0c0.1,0,0.1,0,0.2,0c0,0,0.1,0,0.1,0.1c0,0,0,0.1,0,0.1v0.9
		c0.2-0.2,0.3-0.4,0.5-0.6s0.3-0.3,0.4-0.4c0.1-0.1,0.3-0.2,0.4-0.2c0.1,0,0.3-0.1,0.4-0.1c0.1,0,0.1,0,0.2,0c0.1,0,0.2,0,0.2,0
		s0.2,0,0.2,0.1s0.1,0,0.1,0.1s0,0,0.1,0.1c0,0,0,0,0,0.1s0,0.1,0,0.1C75.1,127.9,75.1,128,75.1,128.1z"/>
	<path d="M80.7,133.8c0,0.1,0,0.1-0.1,0.1s-0.1,0-0.2,0.1s-0.2,0-0.3,0c-0.1,0-0.2,0-0.3,0s-0.1,0-0.2-0.1s0-0.1,0-0.1v-0.6
		c-0.3,0.3-0.6,0.5-0.9,0.7s-0.7,0.2-1,0.2c-0.3,0-0.6,0-0.9-0.1c-0.3-0.1-0.5-0.2-0.7-0.4s-0.3-0.4-0.4-0.6s-0.2-0.5-0.2-0.8
		c0-0.3,0.1-0.6,0.2-0.9s0.3-0.5,0.6-0.6s0.6-0.3,1-0.4c0.4-0.1,0.8-0.1,1.3-0.1h0.8v-0.5c0-0.2,0-0.4-0.1-0.6s-0.1-0.3-0.2-0.5
		c-0.1-0.1-0.3-0.2-0.4-0.3c-0.2-0.1-0.4-0.1-0.7-0.1c-0.3,0-0.5,0-0.7,0.1c-0.2,0.1-0.4,0.1-0.6,0.2c-0.2,0.1-0.3,0.2-0.4,0.2
		c-0.1,0.1-0.2,0.1-0.2,0.1c0,0-0.1,0-0.1,0s-0.1,0-0.1-0.1s0-0.1,0-0.1c0-0.1,0-0.1,0-0.2c0-0.1,0-0.2,0-0.3c0-0.1,0.1-0.1,0.1-0.2
		s0.2-0.1,0.3-0.2c0.2-0.1,0.3-0.2,0.5-0.2c0.2-0.1,0.4-0.1,0.6-0.2c0.2,0,0.5-0.1,0.7-0.1c0.4,0,0.8,0,1.1,0.2s0.6,0.2,0.8,0.4
		c0.2,0.2,0.3,0.4,0.4,0.7s0.1,0.6,0.1,1V133.8z M79.6,131h-1c-0.3,0-0.6,0-0.8,0.1c-0.2,0.1-0.4,0.1-0.6,0.2
		c-0.2,0.1-0.3,0.2-0.3,0.4c-0.1,0.1-0.1,0.3-0.1,0.5c0,0.3,0.1,0.6,0.3,0.8c0.2,0.2,0.5,0.3,0.9,0.3c0.3,0,0.6-0.1,0.8-0.2
		s0.5-0.4,0.8-0.7V131z"/>
</g>
<g>
	<path d="M195.9,133.8C195.9,133.9,195.9,133.9,195.9,133.8c0,0.1-0.1,0.1-0.1,0.2s-0.1,0-0.2,0c-0.1,0-0.2,0-0.3,0
		c-0.1,0-0.2,0-0.3,0c-0.1,0-0.1,0-0.2,0c0,0-0.1,0-0.1-0.1c0,0,0-0.1,0-0.1v-3.7c0-0.3,0-0.5-0.1-0.7c0-0.2-0.1-0.4-0.2-0.6
		c-0.1-0.2-0.2-0.3-0.4-0.4c-0.2-0.1-0.3-0.1-0.5-0.1c-0.3,0-0.5,0.1-0.8,0.3c-0.3,0.2-0.5,0.5-0.9,0.9v4.3c0,0,0,0.1,0,0.1
		c0,0,0,0-0.1,0.1c0,0-0.1,0-0.2,0c-0.1,0-0.2,0-0.3,0c-0.1,0-0.2,0-0.3,0s-0.1,0-0.2,0c0,0-0.1,0-0.1-0.1c0,0,0-0.1,0-0.1v-3.7
		c0-0.3,0-0.5-0.1-0.7c-0.1-0.2-0.1-0.4-0.2-0.6c-0.1-0.2-0.2-0.3-0.4-0.4c-0.2-0.1-0.3-0.1-0.5-0.1c-0.3,0-0.5,0.1-0.8,0.3
		c-0.3,0.2-0.6,0.5-0.9,0.9v4.3c0,0,0,0.1,0,0.1c0,0,0,0-0.1,0.1s-0.1,0-0.2,0c-0.1,0-0.2,0-0.3,0c-0.1,0-0.2,0-0.3,0
		c-0.1,0-0.1,0-0.2,0c0,0-0.1,0-0.1-0.1c0,0,0-0.1,0-0.1v-6.2c0,0,0-0.1,0-0.1c0,0,0,0,0.1-0.1c0,0,0.1,0,0.2,0c0.1,0,0.1,0,0.3,0
		c0.1,0,0.2,0,0.2,0c0.1,0,0.1,0,0.2,0c0,0,0.1,0,0.1,0.1c0,0,0,0.1,0,0.1v0.8c0.3-0.4,0.7-0.7,1-0.9c0.3-0.2,0.7-0.3,1-0.3
		c0.3,0,0.5,0,0.7,0.1c0.2,0.1,0.4,0.1,0.5,0.2c0.2,0.1,0.3,0.2,0.4,0.4c0.1,0.1,0.2,0.3,0.3,0.5c0.2-0.2,0.4-0.4,0.6-0.6
		s0.4-0.3,0.5-0.4s0.3-0.2,0.5-0.2c0.2,0,0.3-0.1,0.5-0.1c0.4,0,0.7,0.1,1,0.2c0.3,0.1,0.5,0.3,0.7,0.6c0.2,0.2,0.3,0.5,0.4,0.8
		c0.1,0.3,0.1,0.6,0.1,1V133.8z"/>
	<path d="M202.6,133.8c0,0.1,0,0.1-0.1,0.1c0,0-0.1,0-0.2,0.1c-0.1,0-0.2,0-0.3,0c-0.1,0-0.2,0-0.3,0c-0.1,0-0.1,0-0.2-0.1
		c0,0,0-0.1,0-0.1v-0.6c-0.3,0.3-0.6,0.5-0.9,0.7c-0.3,0.2-0.7,0.2-1,0.2c-0.3,0-0.6,0-0.9-0.1c-0.3-0.1-0.5-0.2-0.7-0.4
		s-0.3-0.4-0.4-0.6s-0.2-0.5-0.2-0.8c0-0.3,0.1-0.6,0.2-0.9c0.1-0.3,0.3-0.5,0.6-0.6c0.3-0.2,0.6-0.3,1-0.4c0.4-0.1,0.8-0.1,1.3-0.1
		h0.8v-0.5c0-0.2,0-0.4-0.1-0.6c-0.1-0.2-0.1-0.3-0.2-0.5c-0.1-0.1-0.3-0.2-0.4-0.3c-0.2-0.1-0.4-0.1-0.7-0.1c-0.3,0-0.5,0-0.7,0.1
		c-0.2,0.1-0.4,0.1-0.6,0.2c-0.2,0.1-0.3,0.2-0.4,0.2c-0.1,0.1-0.2,0.1-0.2,0.1c0,0-0.1,0-0.1,0s-0.1,0-0.1-0.1s0-0.1,0-0.1
		c0-0.1,0-0.1,0-0.2c0-0.1,0-0.2,0-0.3c0-0.1,0.1-0.1,0.1-0.2s0.2-0.1,0.3-0.2c0.2-0.1,0.3-0.2,0.5-0.2c0.2-0.1,0.4-0.1,0.6-0.2
		c0.2,0,0.5-0.1,0.7-0.1c0.4,0,0.8,0,1.1,0.2c0.3,0.1,0.6,0.2,0.8,0.4c0.2,0.2,0.3,0.4,0.4,0.7c0.1,0.3,0.1,0.6,0.1,1V133.8z
		 M201.5,131h-1c-0.3,0-0.6,0-0.8,0.1c-0.2,0.1-0.4,0.1-0.6,0.2c-0.2,0.1-0.3,0.2-0.3,0.4c-0.1,0.1-0.1,0.3-0.1,0.5
		c0,0.3,0.1,0.6,0.3,0.8c0.2,0.2,0.5,0.3,0.9,0.3c0.3,0,0.6-0.1,0.8-0.2s0.5-0.4,0.8-0.7V131z"/>
	<path d="M210,136.3C210,136.3,210,136.3,210,136.3c-0.1,0.1-0.1,0.1-0.1,0.2s-0.1,0-0.2,0c-0.1,0-0.2,0-0.3,0c-0.1,0-0.2,0-0.3,0
		c-0.1,0-0.1,0-0.2,0c0,0-0.1,0-0.1-0.1c0,0,0-0.1,0-0.1v-3.2c-0.2,0.2-0.4,0.3-0.5,0.5c-0.2,0.1-0.3,0.2-0.5,0.3
		c-0.2,0.1-0.3,0.1-0.5,0.2c-0.2,0-0.3,0.1-0.5,0.1c-0.4,0-0.8-0.1-1.1-0.3c-0.3-0.2-0.6-0.4-0.8-0.7c-0.2-0.3-0.3-0.7-0.4-1.1
		c-0.1-0.4-0.1-0.8-0.1-1.3c0-0.5,0.1-1,0.2-1.4c0.1-0.4,0.3-0.8,0.5-1.1s0.5-0.5,0.8-0.7c0.3-0.2,0.7-0.2,1.1-0.2
		c0.2,0,0.4,0,0.5,0.1c0.2,0,0.3,0.1,0.5,0.2c0.2,0.1,0.3,0.2,0.5,0.3c0.2,0.1,0.3,0.3,0.5,0.5v-0.7c0,0,0-0.1,0-0.1
		c0,0,0,0,0.1-0.1s0.1,0,0.2,0c0.1,0,0.1,0,0.2,0c0.1,0,0.2,0,0.2,0c0.1,0,0.1,0,0.2,0c0,0,0.1,0,0.1,0.1c0,0,0,0.1,0,0.1V136.3z
		 M208.8,129.5c-0.3-0.4-0.6-0.7-0.9-0.9c-0.3-0.2-0.6-0.3-0.9-0.3c-0.3,0-0.5,0.1-0.7,0.2c-0.2,0.1-0.4,0.3-0.5,0.5
		c-0.1,0.2-0.2,0.5-0.3,0.8c-0.1,0.3-0.1,0.6-0.1,0.9c0,0.3,0,0.6,0.1,0.9s0.1,0.6,0.2,0.8c0.1,0.2,0.3,0.4,0.5,0.5
		c0.2,0.1,0.4,0.2,0.7,0.2c0.2,0,0.3,0,0.4-0.1c0.1,0,0.3-0.1,0.4-0.2c0.1-0.1,0.3-0.2,0.5-0.4c0.2-0.2,0.3-0.3,0.5-0.6V129.5z"/>
	<path d="M217.3,133.8C217.3,133.9,217.3,133.9,217.3,133.8c0,0.1-0.1,0.1-0.1,0.2s-0.1,0-0.2,0c-0.1,0-0.1,0-0.2,0
		c-0.1,0-0.2,0-0.3,0c-0.1,0-0.1,0-0.2,0c0,0-0.1,0-0.1-0.1c0,0,0-0.1,0-0.1V133c-0.4,0.4-0.7,0.7-1,0.8s-0.7,0.3-1,0.3
		c-0.4,0-0.8-0.1-1-0.2s-0.5-0.3-0.7-0.6c-0.2-0.2-0.3-0.5-0.4-0.8c-0.1-0.3-0.1-0.7-0.1-1.1v-3.7c0,0,0-0.1,0-0.1c0,0,0,0,0.1-0.1
		c0,0,0.1,0,0.2,0c0.1,0,0.2,0,0.3,0s0.2,0,0.3,0c0.1,0,0.1,0,0.2,0c0,0,0.1,0,0.1,0.1c0,0,0,0.1,0,0.1v3.6c0,0.4,0,0.6,0.1,0.9
		c0.1,0.2,0.1,0.4,0.2,0.6c0.1,0.2,0.2,0.3,0.4,0.4c0.2,0.1,0.4,0.1,0.6,0.1c0.3,0,0.6-0.1,0.8-0.3s0.6-0.5,0.9-0.9v-4.3
		c0,0,0-0.1,0-0.1c0,0,0,0,0.1-0.1c0,0,0.1,0,0.2,0c0.1,0,0.2,0,0.3,0c0.1,0,0.2,0,0.3,0c0.1,0,0.1,0,0.2,0c0,0,0.1,0,0.1,0.1
		c0,0,0,0.1,0,0.1V133.8z"/>
	<path d="M220.7,125.6c0,0.3-0.1,0.4-0.2,0.5c-0.1,0.1-0.3,0.1-0.6,0.1c-0.3,0-0.4,0-0.5-0.1c-0.1-0.1-0.1-0.3-0.1-0.5
		c0-0.3,0-0.4,0.2-0.5c0.1-0.1,0.3-0.1,0.6-0.1c0.3,0,0.4,0,0.5,0.1C220.6,125.2,220.7,125.3,220.7,125.6z M220.5,133.8
		C220.5,133.9,220.5,133.9,220.5,133.8c0,0.1-0.1,0.1-0.1,0.2s-0.1,0-0.2,0c-0.1,0-0.2,0-0.3,0c-0.1,0-0.2,0-0.3,0
		c-0.1,0-0.1,0-0.2,0c0,0-0.1,0-0.1-0.1c0,0,0-0.1,0-0.1v-6.2c0,0,0-0.1,0-0.1c0,0,0,0,0.1-0.1c0,0,0.1,0,0.2,0c0.1,0,0.2,0,0.3,0
		c0.1,0,0.2,0,0.3,0c0.1,0,0.1,0,0.2,0s0.1,0,0.1,0.1c0,0,0,0.1,0,0.1V133.8z"/>
	<path d="M227.9,133.8C227.9,133.9,227.9,133.9,227.9,133.8c0,0.1-0.1,0.1-0.1,0.2s-0.1,0-0.2,0c-0.1,0-0.2,0-0.3,0
		c-0.1,0-0.2,0-0.3,0c-0.1,0-0.1,0-0.2,0s-0.1,0-0.1-0.1c0,0,0-0.1,0-0.1v-3.6c0-0.4,0-0.6-0.1-0.8s-0.1-0.4-0.2-0.6
		c-0.1-0.2-0.2-0.3-0.4-0.4c-0.2-0.1-0.4-0.1-0.6-0.1c-0.3,0-0.6,0.1-0.8,0.3c-0.3,0.2-0.6,0.5-0.9,0.9v4.3c0,0,0,0.1,0,0.1
		c0,0,0,0-0.1,0.1s-0.1,0-0.2,0c-0.1,0-0.2,0-0.3,0c-0.1,0-0.2,0-0.3,0c-0.1,0-0.1,0-0.2,0c0,0-0.1,0-0.1-0.1c0,0,0-0.1,0-0.1v-6.2
		c0,0,0-0.1,0-0.1c0,0,0,0,0.1-0.1c0,0,0.1,0,0.2,0c0.1,0,0.1,0,0.3,0c0.1,0,0.2,0,0.2,0c0.1,0,0.1,0,0.2,0c0,0,0.1,0,0.1,0.1
		c0,0,0,0.1,0,0.1v0.8c0.3-0.4,0.7-0.7,1-0.9c0.3-0.2,0.7-0.3,1-0.3c0.4,0,0.8,0.1,1,0.2c0.3,0.1,0.5,0.3,0.7,0.6
		c0.2,0.2,0.3,0.5,0.4,0.8c0.1,0.3,0.1,0.7,0.1,1.1V133.8z"/>
	<path d="M235.7,130.7c0,0.5-0.1,1-0.2,1.4c-0.1,0.4-0.3,0.8-0.6,1.1c-0.3,0.3-0.6,0.5-1,0.7c-0.4,0.2-0.9,0.3-1.4,0.3
		c-0.5,0-0.9-0.1-1.3-0.2s-0.7-0.4-0.9-0.7c-0.3-0.3-0.4-0.6-0.6-1s-0.2-0.9-0.2-1.4c0-0.5,0.1-1,0.2-1.4c0.1-0.4,0.3-0.8,0.6-1.1
		c0.3-0.3,0.6-0.5,1-0.7c0.4-0.2,0.8-0.3,1.4-0.3c0.5,0,0.9,0.1,1.3,0.2s0.7,0.4,0.9,0.7c0.2,0.3,0.4,0.6,0.6,1
		C235.6,129.7,235.7,130.2,235.7,130.7z M234.5,130.8c0-0.3,0-0.6-0.1-0.9c-0.1-0.3-0.2-0.6-0.3-0.8s-0.3-0.4-0.6-0.5
		c-0.2-0.1-0.5-0.2-0.9-0.2c-0.3,0-0.6,0.1-0.9,0.2s-0.4,0.3-0.6,0.5c-0.2,0.2-0.3,0.5-0.3,0.8c-0.1,0.3-0.1,0.6-0.1,1
		c0,0.3,0,0.7,0.1,1s0.2,0.6,0.3,0.8c0.1,0.2,0.3,0.4,0.6,0.5c0.2,0.1,0.5,0.2,0.9,0.2c0.3,0,0.6-0.1,0.9-0.2s0.4-0.3,0.6-0.5
		c0.2-0.2,0.3-0.5,0.3-0.8C234.5,131.4,234.5,131.1,234.5,130.8z"/>
	<path d="M240.7,125.1c0,0.1,0,0.2,0,0.2c0,0.1,0,0.1,0,0.1c0,0,0,0.1,0,0.1c0,0,0,0-0.1,0c0,0-0.1,0-0.1,0c0,0-0.1,0-0.2-0.1
		c-0.1,0-0.1,0-0.2-0.1c-0.1,0-0.2,0-0.3,0c-0.2,0-0.3,0-0.4,0.1c-0.1,0.1-0.2,0.1-0.3,0.3c-0.1,0.1-0.1,0.3-0.2,0.5
		c0,0.2,0,0.4,0,0.7v0.7h1.4c0,0,0.1,0,0.1,0c0,0,0,0,0.1,0.1c0,0,0,0.1,0,0.1c0,0.1,0,0.1,0,0.2c0,0.2,0,0.3-0.1,0.4
		s-0.1,0.1-0.2,0.1h-1.4v5.4c0,0,0,0.1,0,0.1c0,0,0,0-0.1,0.1c0,0-0.1,0-0.2,0c-0.1,0-0.2,0-0.3,0s-0.2,0-0.3,0c-0.1,0-0.1,0-0.2,0
		c0,0-0.1,0-0.1-0.1c0,0,0-0.1,0-0.1v-5.4h-0.9c-0.1,0-0.1,0-0.2-0.1c0-0.1-0.1-0.2-0.1-0.4c0-0.1,0-0.2,0-0.2c0-0.1,0-0.1,0-0.1
		c0,0,0-0.1,0.1-0.1c0,0,0.1,0,0.1,0h0.9v-0.6c0-0.4,0-0.8,0.1-1.1c0.1-0.3,0.2-0.6,0.4-0.8s0.4-0.3,0.6-0.4
		c0.2-0.1,0.5-0.1,0.9-0.1c0.2,0,0.3,0,0.5,0c0.2,0,0.3,0.1,0.3,0.1c0.1,0,0.1,0.1,0.2,0.1s0,0.1,0.1,0.1c0,0,0,0.1,0,0.2
		C240.7,125,240.7,125.1,240.7,125.1z"/>
	<path d="M246,133.8c0,0.1,0,0.1-0.1,0.1c0,0-0.1,0-0.2,0.1c-0.1,0-0.2,0-0.3,0c-0.1,0-0.2,0-0.3,0c-0.1,0-0.1,0-0.2-0.1
		c0,0,0-0.1,0-0.1v-0.6c-0.3,0.3-0.6,0.5-0.9,0.7c-0.3,0.2-0.7,0.2-1,0.2c-0.3,0-0.6,0-0.9-0.1c-0.3-0.1-0.5-0.2-0.7-0.4
		s-0.3-0.4-0.4-0.6s-0.2-0.5-0.2-0.8c0-0.3,0.1-0.6,0.2-0.9c0.1-0.3,0.3-0.5,0.6-0.6c0.3-0.2,0.6-0.3,1-0.4c0.4-0.1,0.8-0.1,1.3-0.1
		h0.8v-0.5c0-0.2,0-0.4-0.1-0.6c-0.1-0.2-0.1-0.3-0.2-0.5c-0.1-0.1-0.3-0.2-0.4-0.3c-0.2-0.1-0.4-0.1-0.7-0.1c-0.3,0-0.5,0-0.7,0.1
		c-0.2,0.1-0.4,0.1-0.6,0.2c-0.2,0.1-0.3,0.2-0.4,0.2c-0.1,0.1-0.2,0.1-0.2,0.1c0,0-0.1,0-0.1,0s-0.1,0-0.1-0.1s0-0.1,0-0.1
		c0-0.1,0-0.1,0-0.2c0-0.1,0-0.2,0-0.3c0-0.1,0.1-0.1,0.1-0.2s0.2-0.1,0.3-0.2c0.2-0.1,0.3-0.2,0.5-0.2c0.2-0.1,0.4-0.1,0.6-0.2
		c0.2,0,0.5-0.1,0.7-0.1c0.4,0,0.8,0,1.1,0.2c0.3,0.1,0.6,0.2,0.8,0.4c0.2,0.2,0.3,0.4,0.4,0.7c0.1,0.3,0.1,0.6,0.1,1V133.8z
		 M244.9,131h-1c-0.3,0-0.6,0-0.8,0.1c-0.2,0.1-0.4,0.1-0.6,0.2c-0.2,0.1-0.3,0.2-0.3,0.4c-0.1,0.1-0.1,0.3-0.1,0.5
		c0,0.3,0.1,0.6,0.3,0.8c0.2,0.2,0.5,0.3,0.9,0.3c0.3,0,0.6-0.1,0.8-0.2s0.5-0.4,0.8-0.7V131z"/>
	<path d="M251.1,133.4c0,0.1,0,0.2,0,0.3c0,0.1,0,0.1-0.1,0.2c0,0-0.1,0.1-0.2,0.1c-0.1,0-0.2,0.1-0.2,0.1c-0.1,0-0.2,0-0.3,0.1
		c-0.1,0-0.2,0-0.3,0c-0.3,0-0.6,0-0.8-0.1c-0.2-0.1-0.4-0.2-0.6-0.4c-0.1-0.2-0.3-0.4-0.3-0.7c-0.1-0.3-0.1-0.6-0.1-0.9v-3.6h-0.9
		c-0.1,0-0.1,0-0.2-0.1s-0.1-0.2-0.1-0.4c0-0.1,0-0.2,0-0.2c0-0.1,0-0.1,0-0.1c0,0,0-0.1,0.1-0.1c0,0,0.1,0,0.1,0h0.9V126
		c0,0,0-0.1,0-0.1c0,0,0-0.1,0.1-0.1c0,0,0.1,0,0.2,0c0.1,0,0.2,0,0.3,0c0.1,0,0.2,0,0.3,0c0.1,0,0.1,0,0.2,0c0,0,0.1,0,0.1,0.1
		c0,0,0,0.1,0,0.1v1.5h1.6c0,0,0.1,0,0.1,0c0,0,0.1,0,0.1,0.1c0,0,0,0.1,0,0.1c0,0.1,0,0.1,0,0.2c0,0.2,0,0.3-0.1,0.4
		s-0.1,0.1-0.2,0.1h-1.6v3.4c0,0.4,0.1,0.7,0.2,1c0.1,0.2,0.3,0.3,0.7,0.3c0.1,0,0.2,0,0.3,0c0.1,0,0.2,0,0.2-0.1
		c0.1,0,0.1,0,0.2-0.1c0,0,0.1,0,0.1,0c0,0,0,0,0.1,0c0,0,0,0,0,0.1c0,0,0,0.1,0,0.1C251.1,133.2,251.1,133.3,251.1,133.4z"/>
	<path d="M257.9,133.8C257.9,133.9,257.9,133.9,257.9,133.8c0,0.1-0.1,0.1-0.1,0.2s-0.1,0-0.2,0c-0.1,0-0.1,0-0.2,0
		c-0.1,0-0.2,0-0.3,0c-0.1,0-0.1,0-0.2,0c0,0-0.1,0-0.1-0.1c0,0,0-0.1,0-0.1V133c-0.4,0.4-0.7,0.7-1,0.8s-0.7,0.3-1,0.3
		c-0.4,0-0.8-0.1-1-0.2s-0.5-0.3-0.7-0.6c-0.2-0.2-0.3-0.5-0.4-0.8c-0.1-0.3-0.1-0.7-0.1-1.1v-3.7c0,0,0-0.1,0-0.1c0,0,0,0,0.1-0.1
		c0,0,0.1,0,0.2,0c0.1,0,0.2,0,0.3,0s0.2,0,0.3,0c0.1,0,0.1,0,0.2,0c0,0,0.1,0,0.1,0.1c0,0,0,0.1,0,0.1v3.6c0,0.4,0,0.6,0.1,0.9
		c0.1,0.2,0.1,0.4,0.2,0.6c0.1,0.2,0.2,0.3,0.4,0.4c0.2,0.1,0.4,0.1,0.6,0.1c0.3,0,0.6-0.1,0.8-0.3s0.6-0.5,0.9-0.9v-4.3
		c0,0,0-0.1,0-0.1c0,0,0,0,0.1-0.1c0,0,0.1,0,0.2,0c0.1,0,0.2,0,0.3,0c0.1,0,0.2,0,0.3,0c0.1,0,0.1,0,0.2,0c0,0,0.1,0,0.1,0.1
		c0,0,0,0.1,0,0.1V133.8z"/>
	<path d="M263.6,128.1c0,0.1,0,0.2,0,0.3c0,0.1,0,0.1,0,0.2c0,0,0,0.1-0.1,0.1c0,0,0,0-0.1,0c0,0-0.1,0-0.1,0c-0.1,0-0.1,0-0.2-0.1
		c-0.1,0-0.1,0-0.2-0.1s-0.2,0-0.3,0c-0.1,0-0.2,0-0.3,0.1s-0.2,0.1-0.3,0.2c-0.1,0.1-0.2,0.2-0.4,0.4c-0.1,0.2-0.3,0.4-0.4,0.6v4
		c0,0,0,0.1,0,0.1c0,0,0,0-0.1,0.1s-0.1,0-0.2,0c-0.1,0-0.2,0-0.3,0c-0.1,0-0.2,0-0.3,0c-0.1,0-0.1,0-0.2,0c0,0-0.1,0-0.1-0.1
		c0,0,0-0.1,0-0.1v-6.2c0,0,0-0.1,0-0.1c0,0,0,0,0.1-0.1c0,0,0.1,0,0.2,0c0.1,0,0.1,0,0.3,0c0.1,0,0.2,0,0.2,0c0.1,0,0.1,0,0.2,0
		c0,0,0.1,0,0.1,0.1c0,0,0,0.1,0,0.1v0.9c0.2-0.2,0.3-0.4,0.5-0.6c0.1-0.2,0.3-0.3,0.4-0.4c0.1-0.1,0.3-0.2,0.4-0.2
		c0.1,0,0.3-0.1,0.4-0.1c0.1,0,0.1,0,0.2,0c0.1,0,0.2,0,0.2,0s0.2,0,0.2,0.1c0.1,0,0.1,0,0.1,0.1s0,0,0.1,0.1c0,0,0,0,0,0.1
		s0,0.1,0,0.1C263.6,127.9,263.6,128,263.6,128.1z"/>
	<path d="M269.2,133.8c0,0.1,0,0.1-0.1,0.1c0,0-0.1,0-0.2,0.1c-0.1,0-0.2,0-0.3,0c-0.1,0-0.2,0-0.3,0c-0.1,0-0.1,0-0.2-0.1
		c0,0,0-0.1,0-0.1v-0.6c-0.3,0.3-0.6,0.5-0.9,0.7c-0.3,0.2-0.7,0.2-1,0.2c-0.3,0-0.6,0-0.9-0.1c-0.3-0.1-0.5-0.2-0.7-0.4
		s-0.3-0.4-0.4-0.6s-0.2-0.5-0.2-0.8c0-0.3,0.1-0.6,0.2-0.9c0.1-0.3,0.3-0.5,0.6-0.6c0.3-0.2,0.6-0.3,1-0.4c0.4-0.1,0.8-0.1,1.3-0.1
		h0.8v-0.5c0-0.2,0-0.4-0.1-0.6c-0.1-0.2-0.1-0.3-0.2-0.5c-0.1-0.1-0.3-0.2-0.4-0.3c-0.2-0.1-0.4-0.1-0.7-0.1c-0.3,0-0.5,0-0.7,0.1
		c-0.2,0.1-0.4,0.1-0.6,0.2c-0.2,0.1-0.3,0.2-0.4,0.2c-0.1,0.1-0.2,0.1-0.2,0.1c0,0-0.1,0-0.1,0s-0.1,0-0.1-0.1s0-0.1,0-0.1
		c0-0.1,0-0.1,0-0.2c0-0.1,0-0.2,0-0.3c0-0.1,0.1-0.1,0.1-0.2s0.2-0.1,0.3-0.2c0.2-0.1,0.3-0.2,0.5-0.2c0.2-0.1,0.4-0.1,0.6-0.2
		c0.2,0,0.5-0.1,0.7-0.1c0.4,0,0.8,0,1.1,0.2c0.3,0.1,0.6,0.2,0.8,0.4c0.2,0.2,0.3,0.4,0.4,0.7c0.1,0.3,0.1,0.6,0.1,1V133.8z
		 M268.1,131h-1c-0.3,0-0.6,0-0.8,0.1c-0.2,0.1-0.4,0.1-0.6,0.2c-0.2,0.1-0.3,0.2-0.3,0.4c-0.1,0.1-0.1,0.3-0.1,0.5
		c0,0.3,0.1,0.6,0.3,0.8c0.2,0.2,0.5,0.3,0.9,0.3c0.3,0,0.6-0.1,0.8-0.2s0.5-0.4,0.8-0.7V131z"/>
</g>
</svg>
